Simulation
nRows=36
nColumns=15
endheader
time  TH_x TH_y TH_z SC_y  SC_z  SC_x  AC_y  AC_z  AC_x  GH_y  GH_z  GH_yy  EL_x  PS_y
1.95  0.000000  0.000000  0.000000  -29.80464710078894  9.365332867876397  22.709915665509804  57.17631915819035  10.334729362208467  1.6089647683213932  52.45564264830432  60.72594815952317  -42.53919080537794  22.367633345719234  0.000000
1.989  0.000000  0.000000  0.000000  -29.614090185081373  8.931812722807951  21.92930162239993  57.189504699538595  10.18382584141535  1.161652250910682  52.4829277452635  59.84843266597906  -41.61226682764045  22.568304351553454  0.000000
2.028  0.000000  0.000000  0.000000  -29.400465319494025  8.460963208238844  21.085039126520353  57.176233716915526  10.038738405852207  0.7146758763989745  52.55493012814598  58.81175022447076  -40.73292166935647  22.7690258309466  0.000000
2.067  0.000000  0.000000  0.000000  -29.17365154030344  7.966559198891604  20.19265035396218  57.13818369173588  9.903228023411975  0.2867020007393545  52.673649206675286  57.612226262011426  -39.919394649605195  22.959611392080404  0.000000
2.106  0.000000  0.000000  0.000000  -28.92617823319351  7.451638211886823  19.25996173931929  57.08169807624644  9.77288592503245  -0.11601023292738409  52.795732277388  56.26962139153908  -39.111618130220435  23.125408348504124  0.000000
2.145  0.000000  0.000000  0.000000  -28.641463997377116  6.9138204792595825  18.283621023643416  57.01353988039258  9.641308938238476  -0.49159360837289795  52.85568652343324  54.820068114653935  -38.21188412129747  23.24913996320097  0.000000
2.184  0.000000  0.000000  0.000000  -28.312751809850624  6.352546712845625  17.257679595098008  56.937070044899826  9.508886170502114  -0.8333305559924316  52.79991992307162  53.295890908267396  -37.147200116418695  23.322683472293285  0.000000
2.223  0.000000  0.000000  0.000000  -27.95408844808547  5.772120656879991  16.188831411894604  56.85473764467975  9.379717643331016  -1.1332067206525018  52.607680891516054  51.71494330203482  -35.90834073872185  23.35452803960544  0.000000
2.262  0.000000  0.000000  0.000000  -27.599299362203855  5.177564431778507  15.094085982730755  56.76843055905989  9.257398807259205  -1.3866263800788259  52.29320180872177  50.08371499384651  -34.540809702224706  23.368709128164962  0.000000
2.301  0.000000  0.000000  0.000000  -27.284420434562  4.575605691147916  13.993929947198183  56.67849673296142  9.140480598003105  -1.593600352196165  51.880494962210534  48.4039222003535  -33.09459064115984  23.39240251482711  0.000000
2.34  0.000000  0.000000  0.000000  -27.021573841771218  3.973442738538653  12.904167047044211  56.578121895754656  9.022860256670612  -1.760865050038205  51.373716130612756  46.67647853790684  -31.57793273914732  23.44343119094798  0.000000
2.379  0.000000  0.000000  0.000000  -26.796346377647545  3.376950070497181  11.83138031370768  56.453594502819634  8.899854427548327  -1.8998659109619522  50.747350700939705  44.9034272179452  -29.942270283366835  23.538538079376412  0.000000
2.418  0.000000  0.000000  0.000000  -26.589377677180774  2.7959685426807006  10.773890431001565  56.28834062288825  8.76632866412564  -2.016886562626798  49.9656340127265  43.09084835145278  -28.114974984415838  23.695735796984323  0.000000
2.457  0.000000  0.000000  0.000000  -26.389152150487  2.2367407309586507  9.730712435987744  56.07109470016113  8.616753669091905  -2.11724942946536  48.992564161333654  41.250587125594386  -26.025001246756556  23.92868745854335  0.000000
2.496  0.000000  0.000000  0.000000  -26.199627857939074  1.7028819503287003  8.70760581164822  55.79849740806673  8.446851214961338  -2.2061528110848396  47.79869204238751  39.39722401179799  -23.630182426097907  24.246282459604732  0.000000
2.535  0.000000  0.000000  0.000000  -26.042821716351657  1.1983524368651193  7.714916383314814  55.475785828348776  8.254215773881139  -2.2832963039573375  46.360082604925076  37.54698196041708  -20.921014589770078  24.653482856541547  0.000000
2.574  0.000000  0.000000  0.000000  -25.937960988563198  0.7275402365957766  6.763363285151479  55.11212642809668  8.04085090466948  -2.3477556468130008  44.655134813587566  35.714624131047785  -17.905662716001217  25.147651815317847  0.000000
2.613  0.000000  0.000000  0.000000  -25.88705996442901  0.2963995763359542  5.8570153746427565  54.71904646157149  7.810833592646086  -2.393844466166746  42.66928939441768  33.91232710887151  -14.618403717613381  25.704228255035403  0.000000
2.652  0.000000  0.000000  0.000000  -25.872621993821213  -0.09362535528210049  4.9930908715276745  54.31164286003437  7.570699031699053  -2.415340775865097  40.40225324421994  32.14899667249436  -11.123034039468106  26.273954307289525  0.000000
2.691  0.000000  0.000000  0.000000  -25.873640749816797  -0.4427468703292604  4.16665070740135  53.90292182868075  7.330399498561545  -2.406266018591681  37.87309076697618  30.426550578252897  -7.499708621493482  26.800677263796427  0.000000
2.73  0.000000  0.000000  0.000000  -25.882265898776833  -0.7469349212949882  3.376989300840557  53.49643596256295  7.101490410550903  -2.367377363765715  35.131115485752005  28.74206940661814  -3.8305574547577885  27.241444877414654  0.000000
2.769  0.000000  0.000000  0.000000  -25.902789580542557  -1.000477053784996  2.632387963240708  53.08231709102597  6.894281175391005  -2.3138882889894106  32.256607002871725  27.091326263558354  -0.18777738541382957  27.57180917731549  0.000000
2.808  0.000000  0.000000  0.000000  -25.94532199976904  -1.1964501510044345  1.948040843978035  52.63757207581737  6.712763305318278  -2.2729050525459504  29.359527766186936  25.47161641950763  3.3551045097597902  27.778796888049605  0.000000
2.847  0.000000  0.000000  0.000000  -26.02117685840815  -1.3265847937078084  1.3458808252106411  52.1396045047351  6.550187561666114  -2.277513805805741  26.56055595321284  23.882993425839853  6.72397752325077  27.859246633437287  0.000000
2.886  0.000000  0.000000  0.000000  -26.128378493006398  -1.3873379431853363  0.8503342230196993  51.57068996988382  6.391036929882895  -2.3625579595798096  23.96676806618196  22.328046841428996  9.851076259096395  27.81942443417351  0.000000
2.925  0.000000  0.000000  0.000000  -26.25439951429796  -1.3809195545970276  0.48510101175866743  50.91944681888355  6.219228420536667  -2.559295309833806  21.641620357079844  20.81032618640435  12.702291580561926  27.67626728652969  0.000000
2.964  0.000000  0.000000  0.000000  -26.38584943198015  -1.3082660986171482  0.26444975743051347  50.18889157215896  6.021670892216363  -2.8884642925513613  19.5954170736187  19.33924803159123  15.275110752754129  27.45241619805247  0.000000
3.003  0.000000  0.000000  0.000000  -26.516968401642853  -1.17406764911815  0.18943715657910906  49.419343213764265  5.788479491856786  -3.3479607052398825  17.770659361966676  17.933515257758756  17.60978406160104  27.180003783849653  0.000000
3.042  0.000000  0.000000  0.000000  -26.6420640131797  -1.0038264961261751  0.24703055598050955  48.704702939911  5.513905008417347  -3.9137750948165486  16.042425922852434  16.619473720196115  19.78037947868254  26.895422772043062  0.000000
3.081  0.000000  0.000000  0.000000  -26.756192347451034  -0.8497063642158524  0.4221509176991394  48.14687303352464  5.202164411000772  -4.522353897804491  14.147823243874702  15.406450782313467  21.980331310157958  26.628338090741444  0.000000
3.12  0.000000  0.000000  0.000000  -26.864039412223725  -0.7538901532565871  0.7039355954266067  47.78625589716854  4.863219955806073  -5.077664113927575  11.746174031358155  14.28257420714806  24.49710689510165  26.396367332438537  0.000000
3.159  0.000000  0.000000  0.000000  -26.971244492113602  -0.7178499493439597  1.0725533054636436  47.58749112686021  4.514412432451113  -5.512274204228305  8.666883229032905  13.239343383044261  27.474861335185395  26.197797989360737  0.000000
3.198  0.000000  0.000000  0.000000  -27.081254986768464  -0.7095055897663423  1.4844124394345106  47.4916711463926  4.189651462125203  -5.830355471229447  5.138034695916921  12.282734603731353  30.675914357153783  26.023184478010176  0.000000
3.237  0.000000  0.000000  0.000000  -27.19963144570889  -0.6759172861290726  1.8913844048272843  47.449047337041286  3.914002357980051  -6.074141571941504  1.7585909769889438  11.41368336073624  33.50609737996599  25.870730822896785  0.000000
3.276  0.000000  0.000000  0.000000  -27.3192264779608  -0.5893169380737577  2.2725511044672864  47.42097006586459  3.6933969358976433  -6.284740805590126  -0.8919046967432249  10.618721741439566  35.39955148732874  25.751830593025005  0.000000
3.315  0.000000  0.000000  0.000000  -27.421769982402555  -0.4714983625239156  2.6307819488441937  47.40556316641386  3.5200535883898567  -6.477807113207163  -2.618793448065762  9.899382225428553  36.17574124299851  25.67494122409843  0.000000
